<svg id="Layer_1" data-name="Layer 1" xmlns="http://www.w3.org/2000/svg" viewBox="0 0 886.71 443.77"><defs><style>.cls-1{fill:#3e5aa9;}.cls-2{fill:#231f20;}.cls-3{fill:#fff;}.cls-4{fill:#f37478;}.cls-5{fill:#8fb1dd;}.cls-6{fill:#a1a0a0;}.cls-7{fill:#7489bd;}.cls-8{fill:#e36569;}.cls-9{fill:#a2a1a1;}</style></defs><path class="cls-1" d="M145.24,311.05l41.28-45.53c15.75,17.87,33.19,28.08,50.21,28.08,23.83,0,37-9.36,37-44.25V136.15H168.65V74.88H346.94V255.31c0,55.31-28.08,101.27-107.66,101.27C208.64,356.58,171.2,345.52,145.24,311.05Z" transform="translate(-107.06 6)"/><polygon class="cls-1" points="0 109.07 82.03 49.42 82.03 168.71 0 109.07"/><path class="cls-2" d="M464.81,209.25H438v-18.5h26.82V163h19.12v27.75h26.82v18.5H483.93V237H464.81Z" transform="translate(-107.06 6)"/><g id="bSRY1g.tif"><path class="cls-3" d="M550-5.82q218.12,0,436.23-.18c6.3,0,7.55,1.24,7.54,7.54q-.35,214.35,0,428.69c0,6.3-1.23,7.55-7.54,7.54q-218.11-.34-436.23-.18Z" transform="translate(-107.06 6)"/><path class="cls-4" d="M710.07,166.75c-7.61.56-15.28-.21-22.82,2-12.53,3.67-20.63,11.46-24.15,24.07a62.88,62.88,0,0,0,.06,34.44C667.87,244,681,253,702,253.24c13.41.14,23.91,5,30.82,16.5,7.38,12.25,6.52,24.67-1.31,36.38-7.58,11.33-22.5,17-35.72,13.11-13-3.82-21.53-12.67-24.25-26.23-1-5.08-1.11-10.35-1.57-15.53-1.56-17.78-12.94-30.19-30.41-33A136.74,136.74,0,0,0,625.82,243c-18.19-1-31.7-14.83-31.84-32.69-.15-18.17,13.62-32.67,32-33.83a110.58,110.58,0,0,0,14.56-1.55c17.93-3.53,28.27-15.47,29.48-33.64.42-6.36-.38-12.91,3.13-18.75,3.29,2.88,2.37,6.61,2,10.18-1.68,15.9,9.47,29.14,25.43,30.12,3,.19,6.1-.1,8.9,1.45A1.7,1.7,0,0,1,710.07,166.75Z" transform="translate(-107.06 6)"/><path class="cls-5" d="M813.47,222.11c10,28.15,35.17,39.42,63.16,28.15,17.65-7.1,22.71-21.82,23.1-39.17.46-20.11,16-35.55,35-34.66,18,.84,31.61,15.47,31.51,34-.09,18.72-12.69,31.62-31.45,32.4-6.72.28-13.5.9-19.8,3.29-16.59,6.29-24.35,17.91-24.5,37-.11,13.51-4.59,24.88-16.31,31.92-24.48,14.7-50.57-1.75-51.66-32.19-.7-19.38-9.2-31.5-25.69-37.36-6.79-2.42-14.14.82-20.7-2.61,1.84-2.66,4.75-2.6,7.44-2.6,10.67,0,18.82-4.44,24.5-13.51C809.36,224.71,810.79,222.64,813.47,222.11Z" transform="translate(-107.06 6)"/><path class="cls-6" d="M787.68,176.92c28-5,36.27-15,38.14-45.84.86-14.24,8.68-25.13,22.53-29.12,13.24-3.81,25.47-1.48,35.18,9.34,9,10,11.66,24.09,5.73,35.79-6.85,13.53-18.41,19.68-33.54,20-16.31.4-30.1,5.64-36.92,22.08-2.49,6-3.31,12.34-3.6,18.79-.17,3.61.73,7.4-1.6,10.69-2.49-1.48-2.56-4-2.63-6.45-.42-14.46-7-24.94-20-31.43C789.41,180,787.62,179.21,787.68,176.92Z" transform="translate(-107.06 6)"/><path class="cls-7" d="M787.68,176.92c19.82,7,26.56,22.11,25.92,41.79,0,1.13-.09,2.26-.13,3.4-7,16.78-20.4,21.93-37.34,20.76-17.88-2.53-29.25-15.58-29.23-33.67,0-3.64.35-7.28.54-10.91,3.34-13.42,12.38-21.19,25.07-21.57Z" transform="translate(-107.06 6)"/><path class="cls-8" d="M710.37,165.33c-17.29,2-29.93-3.91-37.31-20.47-3.46-7.77,2.22-14.9.05-22.31,6-16.21,20.39-25,36.32-22.33,17.72,3,27.8,15.63,28.63,35.83C738.51,153.64,725.78,167.1,710.37,165.33Z" transform="translate(-107.06 6)"/><path class="cls-9" d="M710.37,165.33C727,162.56,735,151.6,738.06,136.05c2.28,3.59,1.06,7.76,1.85,11.62,3.67,17.9,16.09,25.71,32.61,29.05-12,2.92-19.39,11.29-25.09,21.57-3.71-20.86-18-29.19-37.36-31.54C710.15,166.27,710.25,165.8,710.37,165.33Z" transform="translate(-107.06 6)"/></g></svg>