<?xml version="1.0" encoding="utf-8"?>
<!-- Generator: Adobe Illustrator 24.0.1, SVG Export Plug-In . SVG Version: 6.00 Build 0)  -->
<svg version="1.1" id="Layer_1" xmlns="http://www.w3.org/2000/svg" xmlns:xlink="http://www.w3.org/1999/xlink" x="0px" y="0px"
	 viewBox="0 0 1118.13 130.13" enable-background="new 0 0 1118.13 130.13" xml:space="preserve">
<a id="ABgCMR.tif" xlink:href="https://jhkforecasts.com" >
	<g>
		<g>
			<path fill="#FEFEFE" d="M0.03,87.46c0-28.35,0-56.71-0.02-85.06c0-0.78,0.07-1.05,0.98-1.04c41.82,0.03,83.65,0.03,125.47,0.03
				c0.54,0,0.97-0.15,0.97,0.79c-0.04,42.2-0.03,84.39-0.03,126.59c-9.34,0-18.67,0-28,0c-0.13-0.15-0.21-0.33-0.21-0.53
				c0.1-0.71-0.03-1.39-0.17-2.08c-2.37-11.25-4.69-22.51-7.02-33.77c-0.04-0.2-0.08-0.4-0.12-0.61c-0.37-1.9-0.19-2.22,1.69-2.7
				c10.29-2.6,20.53-5.36,30.77-8.12c0.87-0.23,1.91-0.38,2.08-1.47c0.18-1.13-0.85-1.5-1.6-1.96c-1.26-0.78-2.54-1.54-3.82-2.29
				c-0.83-0.48-1.67-0.57-2.61-0.35c-9.68,2.32-19.37,4.56-29.06,6.82c-0.53,0.12-1.2,0.55-1.6-0.05c-0.36-0.53,0.13-1.11,0.4-1.6
				c2.71-4.91,5.35-9.85,8.07-14.75c0.38-0.69,0.74-1.38,1.08-2.09c0.44-0.93,0.21-1.69-0.63-2.25c-1.27-0.84-2.58-1.64-3.93-2.35
				c-1.16-0.61-2.03-0.36-2.75,0.78c-1.12,1.78-2.17,3.6-3.23,5.42c-5.76,9.86-11.61,19.67-17.46,29.48
				c-2.22,3.72-4.4,7.46-6.62,11.17c-1.01,1.68-0.78,2.58,0.87,3.58c1.02,0.62,2.05,1.24,3.1,1.81c1.35,0.73,2.14,0.53,2.98-0.84
				c1.53-2.49,3.02-5.01,4.53-7.52c2.1-3.5,4.21-7,6.31-10.5c0.13-0.21,0.25-0.43,0.39-0.63c0.21-0.3,0.39-0.71,0.81-0.67
				c0.5,0.04,0.6,0.52,0.7,0.91c0.68,2.63,1.3,5.28,1.96,7.92c1.98,7.88,3.77,15.8,5.76,23.67c0.32,1.25,0.91,2.13,2.04,2.76
				c1.32,0.74,2.75,1.34,3.84,2.45c0.07,0.13,0.05,0.25-0.03,0.36c-31.57,0-63.13,0-94.7,0.02c-0.95,0-1.24-0.11-1.23-1.17
				c0.05-12.73,0.03-25.45,0.03-38.18c0.68,0.02,0.7,0.6,0.82,1.04C2.67,97,7.11,100.83,13.51,102.4c6.57,1.62,11.95-0.7,16.2-5.71
				c3.13-3.68,5.41-7.97,8.08-11.99c3.72-5.6,7.3-11.28,10.94-16.93c1.43-2.22,2.89-4.42,4.28-6.66c0.87-1.41,0.76-1.98-0.64-2.82
				c-1.1-0.66-2.13-1.41-3.23-2.08c-1.46-0.89-2.18-0.76-3.1,0.66c-2.57,3.98-5.12,7.98-7.71,11.95
				c-4.57,7.01-8.98,14.12-13.63,21.08c-1.23,1.84-2.72,3.42-4.75,4.4c-4.82,2.31-9.97,0.15-11.71-4.91
				c-0.27-0.78-0.52-1.57-0.67-2.38c-0.18-0.94-0.77-1.37-1.69-1.21c-1.9,0.33-3.84,0.59-5.5,1.71C0.25,87.57,0.13,87.55,0.03,87.46
				z"/>
			<path fill="#87C3EA" d="M0.28,87.47c0.2-0.44,0.55-0.75,0.99-0.87c1.47-0.4,2.93-0.85,4.43-1.11c1.52-0.26,1.97,0.17,2.25,1.72
				c0.27,1.43,0.67,2.81,1.46,4.04c2.51,3.95,7.77,4.89,11.61,2.1c1.32-0.96,2.44-2.09,3.32-3.46C31.33,79.1,38.31,68.31,45.26,57.5
				c1.73-2.69,2.09-2.83,4.72-1.12c0.9,0.58,1.81,1.16,2.71,1.73c1.43,0.91,1.59,1.61,0.67,3.05c-4.84,7.52-9.68,15.03-14.54,22.54
				c-2.57,3.98-5.1,7.99-7.81,11.87c-3.13,4.49-7.42,7.27-12.97,7.64c-4.24,0.28-8.04-1.17-11.43-3.64
				c-3.15-2.3-5.17-5.37-6.09-9.17c-0.08-0.35-0.11-0.74-0.49-0.95c0-0.16,0-0.33,0-0.49C0.36,88.49-0.04,87.92,0.28,87.47z"/>
			<path fill="#F9C9C8" d="M99.41,128.28c0,0.16-0.01,0.32-0.01,0.49c-1.16,0-2.31,0-3.47,0c0-0.08-0.01-0.16-0.01-0.24
				C97.05,127.91,98.23,128.1,99.41,128.28z"/>
			<path fill="#BFDFF3" d="M0.28,87.47c-0.09,0.49,0.21,1.05-0.25,1.48c0-0.49,0-0.99,0-1.48C0.12,87.46,0.2,87.46,0.28,87.47z"/>
			<path fill="#F49291" d="M99.41,128.28c-1.13,0.48-2.33,0.13-3.49,0.25c-1.53-0.89-3.06-1.8-4.6-2.68
				c-0.76-0.44-1.19-1.04-1.4-1.91c-2.6-10.71-5.23-21.41-7.84-32.12c-0.09-0.36-0.11-0.73-0.47-1.1c-1.39,2.31-2.77,4.6-4.14,6.88
				c-2.54,4.24-5.07,8.49-7.62,12.73c-0.9,1.49-1.9,1.71-3.41,0.81c-1.1-0.65-2.21-1.29-3.31-1.94c-1.6-0.94-1.87-1.95-0.91-3.59
				c2.77-4.68,5.56-9.35,8.33-14.03c6.27-10.6,12.54-21.21,18.81-31.81c1.24-2.1,1.99-2.32,4.07-1.11c1.07,0.62,2.14,1.24,3.19,1.9
				c1.38,0.87,1.61,1.67,0.83,3.11c-2.83,5.22-5.68,10.42-8.53,15.63c-0.41,0.75-0.79,1.51-1.31,2.51
				c3.53-0.83,6.81-1.59,10.08-2.36c7.06-1.66,14.11-3.32,21.17-4.99c0.69-0.16,1.3-0.05,1.9,0.31c1.67,0.99,3.33,1.98,5,2.96
				c0.69,0.4,1.19,0.94,1.07,1.78c-0.12,0.87-0.73,1.34-1.56,1.56c-3.98,1.06-7.96,2.14-11.94,3.19C106.6,86,99.87,87.77,93.13,89.5
				c-1,0.26-1.28,0.65-1.06,1.73c2.51,11.91,4.96,23.83,7.44,35.74C99.6,127.44,99.64,127.86,99.41,128.28z"/>
			<path fill="#040707" d="M86.41,2.19c1.61-0.53,2.27,0.41,2.91,1.82c7.38,16.23,14.83,32.42,22.25,48.63
				c0.98,2.15,0.62,3.13-1.52,4.11c-1.24,0.57-2.47,1.13-3.71,1.69c-1.98,0.9-2.94,0.54-3.85-1.42c-3.02-6.59-6.06-13.17-9.03-19.78
				c-0.44-0.97-0.77-1.16-1.79-0.69c-8.19,3.8-16.4,7.54-24.63,11.25c-0.94,0.42-0.95,0.81-0.57,1.63
				c3.03,6.53,6.01,13.08,9.01,19.62c1.04,2.27,0.72,3.13-1.55,4.16c-1.2,0.55-2.4,1.09-3.6,1.63c-2.03,0.92-3.02,0.56-3.94-1.44
				c-4.76-10.39-9.53-20.79-14.29-31.18c-2.78-6.05-5.55-12.11-8.33-18.16c-0.96-2.09-0.6-3.06,1.47-4.01
				c1.27-0.58,2.54-1.17,3.82-1.74c1.92-0.87,2.93-0.48,3.83,1.47c2.92,6.35,5.86,12.69,8.74,19.05c0.39,0.87,0.72,1.01,1.6,0.61
				c8.23-3.79,16.48-7.54,24.75-11.25c0.9-0.4,0.97-0.73,0.57-1.59c-2.94-6.34-5.81-12.71-8.7-19.07c-0.92-2.03-0.58-3.02,1.49-3.89
				C82.94,2.95,84.4,1.76,86.41,2.19z"/>
			<path fill="#FEFEFE" d="M50.42,19.17c0.97,0,1.1,0.69,1.35,1.23c3.08,6.68,6.17,13.35,9.18,20.06c0.46,1.03,0.83,1.08,1.77,0.64
				c8.98-4.12,17.97-8.21,26.99-12.26c0.89-0.4,0.99-0.72,0.58-1.59c-3.09-6.67-6.12-13.38-9.17-20.07
				c-0.73-1.6-0.67-1.74,0.97-2.48c1.12-0.51,2.24-1.03,3.37-1.54c1.54-0.7,1.73-0.63,2.43,0.89c3.91,8.53,7.81,17.07,11.72,25.6
				c3.58,7.82,7.17,15.64,10.76,23.46c0.72,1.58,0.66,1.75-0.97,2.5c-1.12,0.51-2.25,1.03-3.38,1.54c-1.57,0.71-1.73,0.65-2.43-0.87
				c-3.17-6.92-6.36-13.84-9.48-20.79c-0.46-1.01-0.84-1.1-1.81-0.65c-8.94,4.13-17.91,8.21-26.88,12.27
				c-0.91,0.41-1.1,0.74-0.66,1.69c3.23,6.93,6.4,13.89,9.58,20.84c0.68,1.49,0.61,1.69-0.84,2.35c-1.24,0.57-2.48,1.13-3.71,1.69
				c-1.37,0.62-1.59,0.54-2.24-0.88c-4.98-10.88-9.96-21.76-14.94-32.64c-2.52-5.49-5.04-10.98-7.56-16.47
				c-0.76-1.65-0.69-1.79,1.01-2.57c1.2-0.55,2.39-1.1,3.59-1.64C49.93,19.34,50.24,19.24,50.42,19.17z"/>
		</g>
	</g>
</a>
<g>
	<path d="M187.18,61.11h-9c-0.6,0-1.14-0.54-1.14-1.14v-3.36c0-0.6,0.54-1.14,1.14-1.14h9v-9.06c0-0.6,0.54-1.08,1.14-1.08h3.36
		c0.6,0,1.14,0.48,1.14,1.08v9.06h9.06c0.6,0,1.08,0.54,1.08,1.14v3.36c0,0.6-0.48,1.14-1.08,1.14h-9.06v8.94
		c0,0.6-0.54,1.08-1.14,1.08h-3.36c-0.6,0-1.14-0.48-1.14-1.08V61.11z"/>
</g>
<a id="gRi0TM.tif" xlink:href="https://twitter.com/PpollingNumbers" >
	<g>
		<g>
			<path fill="#FEFEFE" d="M389.86,59.83c0,29.71-0.03,59.41,0.06,89.12c0.01,2.23-0.45,2.69-2.68,2.68
				c-58.91-0.08-117.82-0.08-176.74,0c-2.23,0-2.69-0.45-2.68-2.68c0.08-59.41,0.08-118.83,0-178.24c0-2.23,0.45-2.69,2.68-2.68
				c58.91,0.08,117.82,0.08,176.74,0c2.23,0,2.69,0.45,2.68,2.68C389.83,0.41,389.86,30.12,389.86,59.83z"/>
			<path fill="#E48785" d="M267.24,41.2c-10.72,1.4-14.23,9.87-13.38,19.06c1.05,11.38,5.65,15.28,17.23,15.75
				c7.67,0.31,13.53,5.54,13.97,12.44c0.49,7.75-4.05,13.55-11.66,14.89c-8.09,1.42-15.16-4.79-15.9-13.98
				c-0.15-1.86-0.07-3.77-0.49-5.57c-1.75-7.62-7.09-11.32-16.48-11.63c-8.45-0.28-14.26-6.2-13.99-14.26
				c0.23-6.92,5.69-12.42,12.63-12.83c2.23-0.13,4.48-0.34,6.67-0.76c6.77-1.31,11.19-6.62,11.57-13.72
				c0.14-2.71-0.17-5.5,1.33-7.98c1.51,1.45,0.9,3.21,0.7,4.9c-0.7,5.73,3.8,11.06,9.56,11.43c2.17,0.14,4.51-0.62,6.43,1.06
				c-0.62,1.96-2.24,0.87-3.4,1.03C270.45,41.27,268.83,40.98,267.24,41.2z"/>
			<path fill="#A1B9DF" d="M316.48,60.98c-0.76,9.88,7.08,14.85,14.81,14.99c5.28,0.1,10.5,0.07,14.78-3.76
				c3.51-3.14,4.78-7.2,4.85-11.71c0.05-3.57,0.65-6.97,2.71-9.92c3.49-5,11.12-7,16.76-4.5c5.25,2.32,9.06,9.14,8,14.35
				c-1.38,6.81-6.59,11.55-13.09,11.74c-6.31,0.19-12.2,1.22-15.76,7.27c-1.81,3.08-2.38,6.48-2.39,10.04
				c-0.03,6.24-3.56,11.22-9.14,13.15c-5.72,1.98-11.38,0.25-15.41-4.46c-2.66-3.11-2.8-6.95-2.97-10.57
				c-0.48-9.91-6.47-15.04-16.55-15.3c-1.57-0.04-3.27,0.43-4.65-0.81c1.04-1.2,2.51-1.15,3.83-1c7.25,0.81,11.19-2.91,13.17-9.41
				C315.75,60.73,316.1,60.7,316.48,60.98z"/>
			<path fill="#AAABAB" d="M316.48,60.98c-0.24-0.01-0.49-0.02-0.73-0.02c-0.77-0.6-0.91-1.47-0.93-2.34
				c-0.07-5.42-2.93-9.02-7.43-11.59c-0.7-0.4-1.71-0.65-1.41-1.85c1.45-1.2,3.33-0.66,4.98-1.28c8.26-3.11,9.56-10.05,9.95-17.55
				c0.34-6.61,5.55-12.13,11.99-12.64c7.3-0.58,13.63,3.96,14.93,10.72c1.61,8.37-4.09,15.74-12.58,16.41
				c-6.69,0.53-13.31,1.32-16.65,8.46C316.86,53,316.81,57.02,316.48,60.98z"/>
			<path fill="#D17976" d="M275.29,40c-1.74,0-3.48-0.01-5.23-0.01c-7.9-0.01-12.66-5.75-11.39-13.64c0.2-1.21,0.05-2.48,0.06-3.72
				c2.52-6.68,7.44-9.66,14.81-8.97c5.78,0.54,10.26,4.97,11.53,11.38c1.07,5.7-0.12,10.59-5.09,14.09
				C278.58,40.11,277.15,41.32,275.29,40z"/>
			<path fill="#8394C4" d="M305.98,45.19c6.75,3.09,10.59,7.99,9.77,15.78c-0.24,6.39-4.51,10.48-10.96,10.49
				c-2.11,0-4.23,0.02-6.34,0.03c-4.63-1.45-7.69-4.44-8.95-9.18c-0.68-3.04-0.4-6.12-0.22-9.17c0.25-4.07,5.69-9.09,11.48-7.97
				C302.49,45.16,304.23,45.17,305.98,45.19z"/>
			<path fill="#ABACAC" d="M300.74,45.15c-8.4,1.63-11.26,5.04-11.25,13.41c0,1.25-0.01,2.49-0.01,3.74
				c-1.35-2.05-0.68-4.33-0.65-6.5c0.13-8.03-5.33-13.94-13.42-14.35c-2.72-0.14-5.45-0.17-8.17-0.26c2.54-1.37,5.58,0.56,8.05-1.21
				c5.23-0.98,9.39-5.78,9.69-11.23c0.07-1.24,0.07-2.49,0.1-3.73c1.05,1.16,0.61,2.58,0.63,3.89c0.17,9.38,4.47,14.31,13.7,15.68
				C299.87,44.68,300.3,44.97,300.74,45.15z"/>
		</g>
	</g>
</a>
</svg>
