<?xml version="1.0" encoding="utf-8"?>
<!-- Generator: Adobe Illustrator 24.1.0, SVG Export Plug-In . SVG Version: 6.00 Build 0)  -->
<svg version="1.1" id="Layer_1" xmlns="http://www.w3.org/2000/svg" xmlns:xlink="http://www.w3.org/1999/xlink" x="0px" y="0px"
	 viewBox="0 0 240 240" style="enable-background:new 0 0 240 240;" xml:space="preserve">
<style type="text/css">
	.st0{fill:#FFFFFF;}
	.st1{fill:#F37478;}
	.st2{fill:#8FB1DD;}
	.st3{fill:#A1A0A0;}
	.st4{fill:#7489BD;}
	.st5{fill:#E36569;}
	.st6{fill:#A2A1A1;}
</style>
<g id="E7gE0I.tif">
	<g>
		<path class="st0" d="M239.92,120c0,38.81-0.04,77.62,0.08,116.43c0.01,2.97-0.6,3.57-3.57,3.57c-77.62-0.1-155.25-0.1-232.87,0
			C0.6,240,0,239.4,0,236.44C0.1,158.81,0.1,81.19,0,3.56C0,0.6,0.6,0,3.56,0c77.62,0.1,155.25,0.1,232.87,0
			c2.97,0,3.58,0.6,3.57,3.57C239.87,42.38,239.92,81.19,239.92,120z"/>
		<path class="st1" d="M87.62,94.42c-4.12,0.3-8.26-0.11-12.34,1.08c-6.78,1.98-11.16,6.2-13.06,13.02
			c-1.73,6.22-1.7,12.46,0.03,18.63c2.55,9.08,9.66,13.93,20.97,14.05c7.25,0.08,12.93,2.72,16.66,8.92
			c3.99,6.63,3.53,13.35-0.7,19.68c-4.1,6.13-12.17,9.19-19.31,7.09c-7.04-2.07-11.64-6.85-13.12-14.19
			c-0.55-2.75-0.6-5.59-0.84-8.4c-0.84-9.62-7-16.33-16.45-17.82c-2.45-0.39-4.92-0.68-7.4-0.82c-9.84-0.56-17.14-8.02-17.22-17.68
			c-0.08-9.83,7.36-17.67,17.28-18.3c2.63-0.17,5.29-0.33,7.87-0.84c9.7-1.91,15.28-8.37,15.94-18.2c0.23-3.44-0.21-6.98,1.69-10.14
			c1.78,1.56,1.28,3.57,1.08,5.51c-0.91,8.6,5.12,15.76,13.75,16.29c1.63,0.1,3.3-0.06,4.81,0.78
			C87.78,93.43,87.9,93.87,87.62,94.42z"/>
		<path class="st2" d="M143.52,124.36c5.41,15.22,19.01,21.32,34.15,15.23c9.54-3.84,12.28-11.8,12.49-21.19
			c0.25-10.88,8.66-19.23,18.92-18.75c9.75,0.46,17.09,8.37,17.03,18.38c-0.05,10.13-6.86,17.1-17,17.53
			c-3.63,0.15-7.3,0.48-10.71,1.78c-8.97,3.4-13.16,9.69-13.25,20.02c-0.06,7.31-2.48,13.46-8.82,17.27
			c-13.24,7.95-27.34-0.95-27.93-17.41c-0.38-10.48-4.97-17.04-13.89-20.21c-3.67-1.31-7.64,0.45-11.19-1.41
			c1-1.44,2.57-1.41,4.02-1.41c5.77-0.02,10.18-2.4,13.25-7.3C141.3,125.77,142.08,124.65,143.52,124.36z"/>
		<path class="st3" d="M129.58,99.92c15.12-2.7,19.61-8.1,20.62-24.8c0.47-7.7,4.69-13.59,12.18-15.75
			c7.16-2.06,13.77-0.8,19.02,5.05c4.87,5.43,6.31,13.03,3.1,19.36c-3.71,7.32-9.96,10.64-18.13,10.84
			c-8.82,0.22-16.28,3.05-19.97,11.94c-1.34,3.24-1.79,6.68-1.95,10.17c-0.09,1.95,0.4,4-0.86,5.78c-1.35-0.8-1.38-2.19-1.42-3.49
			c-0.23-7.82-3.79-13.49-10.8-17C130.52,101.6,129.55,101.16,129.58,99.92z"/>
		<path class="st4" d="M129.58,99.92c10.72,3.78,14.36,11.96,14.01,22.6c-0.02,0.61-0.05,1.23-0.07,1.84
			c-3.76,9.08-11.03,11.86-20.19,11.23c-9.67-1.37-15.81-8.43-15.8-18.21c0-1.97,0.19-3.93,0.29-5.9
			c1.81-7.26,6.69-11.46,13.56-11.66C124.11,99.85,126.85,99.89,129.58,99.92z"/>
		<path class="st5" d="M87.78,93.65c-9.35,1.1-16.18-2.11-20.17-11.07c-1.87-4.21,1.2-8.06,0.02-12.07
			c3.25-8.76,11.02-13.55,19.64-12.08c9.58,1.63,15.03,8.46,15.48,19.38C103,87.33,96.12,94.61,87.78,93.65z"/>
		<path class="st6" d="M87.78,93.65c8.99-1.5,13.29-7.43,14.97-15.84c1.24,1.94,0.57,4.2,1,6.29c1.98,9.68,8.7,13.9,17.63,15.71
			c-6.51,1.58-10.48,6.11-13.56,11.66c-2.01-11.28-9.74-15.79-20.2-17.06C87.66,94.16,87.72,93.9,87.78,93.65z"/>
	</g>
</g>
</svg>
