<svg id="Layer_1" data-name="Layer 1" xmlns="http://www.w3.org/2000/svg" width="196.96" height="218.01" viewBox="0 0 196.96 218.01"><defs><style>.cls-1{fill:#fff;}.cls-2{fill:#231f20;}</style></defs><path class="cls-1" d="M126.33,85.8l-.66,218" transform="translate(-106.29 -85.79)"/><polygon points="0 184.21 9.69 201.11 19.39 218.01 29.18 201.17 38.97 184.32 22.3 184.28 22.85 0.02 17.23 0 16.67 184.26 0 184.21"/><path class="cls-2" d="M168.55,147.25a.47.47,0,0,1,.51-.43h.46a.5.5,0,0,1,.48.29l6.3,13.5h.08l6.3-13.5a.48.48,0,0,1,.49-.29h.45a.48.48,0,0,1,.52.43l3.37,19.22a.49.49,0,0,1-.51.66h-2.6a.63.63,0,0,1-.55-.43l-1.69-10.84h-.08l-5,11.24a.49.49,0,0,1-.49.32h-.51a.51.51,0,0,1-.49-.32l-5.06-11.24h-.09l-1.66,10.84a.54.54,0,0,1-.51.43h-2.58a.52.52,0,0,1-.54-.66Z" transform="translate(-106.29 -85.79)"/><path class="cls-2" d="M195.15,155.4a6,6,0,1,1-5.86,6A6,6,0,0,1,195.15,155.4Zm0,8.93a2.85,2.85,0,0,0,2.75-3,2.75,2.75,0,1,0-2.75,3Z" transform="translate(-106.29 -85.79)"/><path class="cls-2" d="M203.57,156.23a.54.54,0,0,1,.54-.54h1.09a.52.52,0,0,1,.51.37l.4,1.12a4,4,0,0,1,3.24-1.78c1.34,0,2.54.43,2.2,1.15l-1.06,1.86a.51.51,0,0,1-.66.25,3.4,3.4,0,0,0-.83-.17,2.33,2.33,0,0,0-2,1.18v6.92c0,.4-.26.54-.66.54h-2.2a.55.55,0,0,1-.54-.54Z" transform="translate(-106.29 -85.79)"/><path class="cls-2" d="M218.21,155.4a5.25,5.25,0,0,1,5.36,5.32,6.83,6.83,0,0,1-.06.78.56.56,0,0,1-.55.48h-7.32a2.73,2.73,0,0,0,2.75,2.49,4,4,0,0,0,2.23-.71c.28-.18.54-.23.74,0l1.18,1.34a.48.48,0,0,1,0,.75,6.22,6.22,0,0,1-4.27,1.57,6,6,0,0,1,0-12Zm2,4.58a2.14,2.14,0,0,0-2.09-1.95A2.26,2.26,0,0,0,215.9,160Z" transform="translate(-106.29 -85.79)"/><path class="cls-2" d="M175.33,181.15a9.7,9.7,0,0,1,6.92,2.66.54.54,0,0,1,0,.81l-1.75,1.8a.45.45,0,0,1-.71,0,6.77,6.77,0,0,0-4.41-1.69,6.64,6.64,0,0,0,0,13.27,6.82,6.82,0,0,0,4.38-1.63.52.52,0,0,1,.71,0l1.78,1.84a.54.54,0,0,1,0,.77,9.82,9.82,0,0,1-6.95,2.77,10.3,10.3,0,1,1,0-20.6Z" transform="translate(-106.29 -85.79)"/><path class="cls-2" d="M189.69,189.74a6,6,0,1,1-5.87,6A6,6,0,0,1,189.69,189.74Zm0,8.92a2.85,2.85,0,0,0,2.75-2.94,2.76,2.76,0,1,0-2.75,2.94Z" transform="translate(-106.29 -85.79)"/><path class="cls-2" d="M198.1,190.57a.55.55,0,0,1,.54-.55h1.06a.5.5,0,0,1,.49.32l.4,1.08a5.23,5.23,0,0,1,3.83-1.68,4.51,4.51,0,0,1,3.72,1.77,5.87,5.87,0,0,1,4-1.77c3.66,0,5,2.71,5,5.72v5.46a.54.54,0,0,1-.54.55h-2.32a.55.55,0,0,1-.54-.55v-5.66c0-1.49-.72-2.43-2.15-2.43a2.87,2.87,0,0,0-2.4,1.2s0,.57,0,1.09v5.8a.57.57,0,0,1-.54.55h-2.15a.54.54,0,0,1-.54-.55v-5.66c0-1.49-.66-2.43-2.12-2.43a2.52,2.52,0,0,0-2.4,1.8v6.29a.57.57,0,0,1-.55.55h-2.32a.57.57,0,0,1-.54-.55Z" transform="translate(-106.29 -85.79)"/><path class="cls-2" d="M223.91,209.51c0,.34-.17.54-.69.54h-2.29a.57.57,0,0,1-.54-.54V190.57a.55.55,0,0,1,.54-.55h1.12a.53.53,0,0,1,.49.35l.37.94a5,5,0,0,1,3.69-1.57,5.72,5.72,0,0,1,5.52,6,5.83,5.83,0,0,1-5.66,6,5.69,5.69,0,0,1-2.55-.63ZM226,198.66a2.81,2.81,0,0,0,2.77-2.92,2.73,2.73,0,0,0-2.66-2.91,2.44,2.44,0,0,0-2.34,1.74V198A3.69,3.69,0,0,0,226,198.66Z" transform="translate(-106.29 -85.79)"/><path class="cls-2" d="M239.67,189.74a5.24,5.24,0,0,1,5.35,5.32,6.64,6.64,0,0,1-.05.77.56.56,0,0,1-.55.49H237.1a2.73,2.73,0,0,0,2.74,2.49,4,4,0,0,0,2.24-.72c.28-.17.54-.23.74,0l1.17,1.35a.47.47,0,0,1,0,.74,6.13,6.13,0,0,1-4.26,1.57,6,6,0,0,1,0-12Zm2,4.57a2.15,2.15,0,0,0-2.09-1.94,2.25,2.25,0,0,0-2.23,1.94Z" transform="translate(-106.29 -85.79)"/><path class="cls-2" d="M248,193h-1a.54.54,0,0,1-.51-.55v-1.91a.52.52,0,0,1,.51-.55h1v-3.17a.57.57,0,0,1,.54-.55l2.35,0a.54.54,0,0,1,.51.55V190H254a.53.53,0,0,1,.54.55v1.91a.55.55,0,0,1-.54.55h-2.52v4.57c0,.81.43.92.89.92a4.68,4.68,0,0,0,1.4-.31.44.44,0,0,1,.63.31l.57,1.8a.52.52,0,0,1-.31.69,11,11,0,0,1-3.41.74c-2.2,0-3.17-1.37-3.17-3.69Z" transform="translate(-106.29 -85.79)"/><path class="cls-2" d="M257,184a2,2,0,0,1,1.95-2,2,2,0,1,1,0,4A2,2,0,0,1,257,184Zm.26,6.58a.54.54,0,0,1,.54-.55h2.38a.55.55,0,0,1,.54.55v10.35a.57.57,0,0,1-.54.55h-2.38a.56.56,0,0,1-.54-.55Z" transform="translate(-106.29 -85.79)"/><path class="cls-2" d="M264.79,193h-1a.54.54,0,0,1-.51-.55v-1.91a.52.52,0,0,1,.51-.55h1v-3.17a.57.57,0,0,1,.55-.55l2.34,0a.54.54,0,0,1,.52.55V190h2.52a.53.53,0,0,1,.54.55v1.91a.55.55,0,0,1-.54.55H268.2v4.57c0,.81.43.92.89.92a4.83,4.83,0,0,0,1.4-.31.44.44,0,0,1,.63.31l.57,1.8a.53.53,0,0,1-.32.69,10.94,10.94,0,0,1-3.4.74c-2.2,0-3.18-1.37-3.18-3.69Z" transform="translate(-106.29 -85.79)"/><path class="cls-2" d="M273.81,184a2,2,0,0,1,1.94-2,2,2,0,1,1,0,4A2,2,0,0,1,273.81,184Zm.25,6.58a.55.55,0,0,1,.55-.55H277a.55.55,0,0,1,.55.55v10.35a.57.57,0,0,1-.55.55h-2.37a.57.57,0,0,1-.55-.55Z" transform="translate(-106.29 -85.79)"/><path class="cls-2" d="M279.44,190.71c-.17-.37,0-.69.4-.69h2.49a.54.54,0,0,1,.52.32l2.31,5.32h.06l2.46-5.32c.15-.29.37-.32.69-.32h2.23c.43,0,.6.32.4.69l-5.23,10.76a.55.55,0,0,1-.49.28h-.14a.55.55,0,0,1-.49-.28Z" transform="translate(-106.29 -85.79)"/><path class="cls-2" d="M297.9,189.74a5.25,5.25,0,0,1,5.35,5.32,6.65,6.65,0,0,1-.06.77.56.56,0,0,1-.54.49h-7.33a2.74,2.74,0,0,0,2.75,2.49,4,4,0,0,0,2.23-.72c.29-.17.54-.23.74,0l1.18,1.35a.47.47,0,0,1,0,.74,6.15,6.15,0,0,1-4.26,1.57,6,6,0,0,1,0-12Zm2,4.57a2.14,2.14,0,0,0-2.09-1.94,2.26,2.26,0,0,0-2.23,1.94Z" transform="translate(-106.29 -85.79)"/><path class="cls-2" d="M165.28,233l1-1.78a.67.67,0,0,1,1-.2c.14.09,2.46,1.78,4.32,1.78a2.4,2.4,0,0,0,2.6-2.21c0-1.46-1.23-2.46-3.63-3.43-2.69-1.09-5.38-2.8-5.38-6.18,0-2.55,1.89-5.49,6.44-5.49a10.09,10.09,0,0,1,5.72,1.91.72.72,0,0,1,.17.95L176.44,220a.75.75,0,0,1-1,.34c-.23-.14-2.4-1.57-4-1.57a2.27,2.27,0,0,0-2.51,2c0,1.35,1.05,2.26,3.37,3.21,2.78,1.11,6,2.77,6,6.46,0,3-2.54,5.67-6.58,5.67a9.22,9.22,0,0,1-6.29-2.23C165.17,233.6,165,233.46,165.28,233Z" transform="translate(-106.29 -85.79)"/><path class="cls-2" d="M181.25,227.36h-1a.54.54,0,0,1-.52-.54V224.9a.52.52,0,0,1,.52-.54h1v-3.18a.56.56,0,0,1,.54-.54l2.35,0a.54.54,0,0,1,.51.54v3.21h2.52a.52.52,0,0,1,.54.54v1.92a.54.54,0,0,1-.54.54h-2.52v4.58c0,.8.43.91.89.91a4.68,4.68,0,0,0,1.4-.31.44.44,0,0,1,.63.31l.57,1.81a.5.5,0,0,1-.31.68,10.57,10.57,0,0,1-3.41.75c-2.2,0-3.17-1.38-3.17-3.69Z" transform="translate(-106.29 -85.79)"/><path class="cls-2" d="M194.27,228.56a7.3,7.3,0,0,1,2.09.32c0-1.46-.43-2-1.49-2a13.86,13.86,0,0,0-3.21.43c-.4.12-.6-.14-.65-.51l-.26-1.49a.56.56,0,0,1,.4-.72,15.7,15.7,0,0,1,3.89-.54c3.58,0,4.41,1.86,4.41,5v6.21a.57.57,0,0,1-.55.54h-1c-.2,0-.34-.09-.48-.4l-.35-.77a4.91,4.91,0,0,1-3.49,1.46,3.65,3.65,0,0,1-3.86-3.92C189.69,230.14,191.35,228.56,194.27,228.56Zm0,5.09a2.65,2.65,0,0,0,2-1.11V231a4.39,4.39,0,0,0-1.6-.35c-1.12,0-1.86.63-1.86,1.55A1.42,1.42,0,0,0,194.32,233.65Z" transform="translate(-106.29 -85.79)"/><path class="cls-2" d="M203.34,227.36h-1a.54.54,0,0,1-.51-.54V224.9a.52.52,0,0,1,.51-.54h1v-3.18a.55.55,0,0,1,.54-.54l2.35,0a.54.54,0,0,1,.51.54v3.21h2.52a.53.53,0,0,1,.54.54v1.92a.54.54,0,0,1-.54.54h-2.52v4.58c0,.8.43.91.89.91a4.83,4.83,0,0,0,1.4-.31.45.45,0,0,1,.63.31l.57,1.81a.51.51,0,0,1-.31.68,10.72,10.72,0,0,1-3.41.75c-2.2,0-3.17-1.38-3.17-3.69Z" transform="translate(-106.29 -85.79)"/><path class="cls-2" d="M217.58,224.07a5.24,5.24,0,0,1,5.35,5.32,6.64,6.64,0,0,1-.05.77.56.56,0,0,1-.55.49H215a2.74,2.74,0,0,0,2.75,2.49,4,4,0,0,0,2.23-.72c.28-.17.54-.22.74,0l1.17,1.35a.47.47,0,0,1,0,.74,6.18,6.18,0,0,1-4.27,1.58,6,6,0,0,1,0-12Zm2,4.58a2.14,2.14,0,0,0-2.09-2,2.25,2.25,0,0,0-2.23,2Z" transform="translate(-106.29 -85.79)"/><path class="cls-2" d="M224.71,234.43l.77-1.55a.44.44,0,0,1,.66-.2,6.36,6.36,0,0,0,2.6.69c.57,0,1-.23,1-.72s-.4-.83-1.91-1.43c-2.21-.85-3.23-2-3.23-3.77s1.28-3.38,4.2-3.38a6.58,6.58,0,0,1,3.52.89.61.61,0,0,1,.26.77l-.72,1.46a.55.55,0,0,1-.68.2,6.81,6.81,0,0,0-2.38-.6c-.69,0-1,.28-1,.66s.51.68,1.57,1.11c2.21.86,3.86,1.81,3.86,4,0,1.88-1.65,3.49-4.54,3.49a6.47,6.47,0,0,1-3.81-1.06A.49.49,0,0,1,224.71,234.43Z" transform="translate(-106.29 -85.79)"/></svg>